<svg xmlns="http://www.w3.org/2000/svg"><metadata>Generated by IcoMoon</metadata><defs><font id="icomoon" horiz-adv-x="1024"><font-face ascent="960" descent="-64" units-per-em="1024"/><glyph horiz-adv-x="512"/><glyph d="M512 899.765c-120.671 0-234.119-46.992-319.446-132.319s-132.319-198.775-132.319-319.446c0-120.671 46.992-234.119 132.319-319.446s198.775-132.319 319.446-132.319c120.671 0 234.119 46.992 319.446 132.319s132.319 198.775 132.319 319.446c0 120.671-46.992 234.119-132.319 319.446s-198.775 132.319-319.446 132.319zM512 960c282.77 0 512-229.23 512-512s-229.23-512-512-512c-282.77 0-512 229.23-512 512s229.23 512 512 512z" glyph-name="buttons" unicode=""/><glyph d="M601.429 347.42c-3.221 5.478-9.085 9.097-15.796 9.097-3.358 0-6.505-0.906-9.208-2.488l0.086 0.047c-11.533-6.755-25.397-10.743-40.192-10.743s-28.659 3.989-40.574 10.949l0.382-0.206c-2.627 1.55-5.789 2.466-9.164 2.466-6.72 0-12.592-3.63-15.763-9.036l-0.047-0.086-122.937-212.935c-1.526-2.611-2.427-5.749-2.427-9.097 0-6.727 3.638-12.605 9.054-15.774l0.086-0.047c51.226-29.99 112.679-47.946 178.276-48.582l0.184-0.001h3.243c66.684 0.054 129.14 18.109 182.785 49.566l-1.708-0.926c5.478 3.221 9.097 9.085 9.097 15.796 0 3.358-0.906 6.505-2.488 9.208l0.047-0.086zM536.576 97.451h-2.901c-52.761 0.524-102.391 13.415-146.292 35.905l1.851-0.861 105.131 182.044c12.441-4.913 26.851-7.761 41.927-7.761s29.486 2.848 42.723 8.036l-0.796-0.275 105.131-182.044c-42.714-22.020-93.219-34.93-146.739-34.93-0.012 0-0.024 0-0.036 0h0.002zM455.964 423.822c0.062 29.579 16.022 55.416 39.787 69.426l0.377 0.206c5.478 3.221 9.097 9.085 9.097 15.796 0 3.358-0.906 6.505-2.488 9.208l0.047-0.086-122.937 212.651c-3.221 5.478-9.085 9.097-15.796 9.097-3.358 0-6.505-0.906-9.208-2.488l0.086 0.047c-109.133-63.813-181.296-180.4-181.362-313.846v-0.010c0-10.085 8.176-18.261 18.261-18.261v0h246.044c10.012 0.097 18.091 8.235 18.091 18.261 0 0 0 0.001 0 0.001v0zM210.318 441.913c6.067 106.774 62.666 199.15 146.066 254.22l1.219 0.756 105.188-182.044c-21.834-17.867-37.034-43.125-41.777-71.908l-0.093-0.682zM851.911 602.51c-32.448 56.696-77.936 102.585-132.548 134.584l-1.709 0.926c-2.617 1.535-5.764 2.441-9.122 2.441-6.71 0-12.575-3.619-15.749-9.012l-0.047-0.085-122.88-212.878c-1.535-2.617-2.441-5.764-2.441-9.122 0-6.71 3.619-12.575 9.012-15.749l0.085-0.047c24.164-14.203 40.146-40.043 40.22-69.621v-0.011c0-10.085 8.176-18.261 18.261-18.261h245.874c10.085 0 18.261 8.176 18.261 18.261v0c-0.163 65.669-17.661 127.216-48.158 180.351l0.94-1.777zM651.719 442.197c-4.837 29.494-20.060 54.775-41.717 72.481l-0.21 0.166 105.131 182.044c84.458-55.816 140.952-148.064 147.018-253.823l0.040-0.868h-210.489zM474.738 423.708c0-33.995 27.559-61.554 61.554-61.554s61.554 27.559 61.554 61.554c0 33.995-27.559 61.554-61.554 61.554v0c-33.982-0.032-61.521-27.572-61.554-61.551v-0.003zM536.292 448.74c13.824 0 25.031-11.207 25.031-25.031s-11.207-25.031-25.031-25.031c-13.824 0-25.031 11.207-25.031 25.031v0c0.032 13.811 11.22 24.999 25.028 25.031h0.003zM835.072 722.489c-75.623 71.994-178.192 116.286-291.106 116.286-233.348 0-422.514-189.166-422.514-422.514 0-112.914 44.292-215.483 116.451-291.28l-0.165 0.174c75.623-71.994 178.192-116.286 291.106-116.286 233.348 0 422.514 189.166 422.514 422.514 0 112.914-44.292 215.483-116.451 291.28l0.165-0.174zM536.292 37.66c-213.208 0-386.048 172.84-386.048 386.048s172.84 386.048 386.048 386.048c213.208 0 386.048-172.84 386.048-386.048v0c-0.227-213.117-172.931-385.821-386.026-386.048h-0.022z" glyph-name="danger" unicode=""/><glyph d="M609.166 554.496c-10.431 0-18.887-8.456-18.887-18.887v0-356.58c-0.018-0.31-0.028-0.672-0.028-1.036 0-10.431 8.456-18.887 18.887-18.887s18.887 8.456 18.887 18.887c0 0.364-0.010 0.727-0.031 1.086l0.002-0.050v356.636c-0.032 10.387-8.444 18.798-18.827 18.83h-0.003zM386.503 554.496c-10.431 0-18.887-8.456-18.887-18.887v0-356.58c-0.018-0.31-0.028-0.672-0.028-1.036 0-10.431 8.456-18.887 18.887-18.887s18.887 8.456 18.887 18.887c0 0.364-0.010 0.727-0.031 1.086l0.002-0.050v356.636c-0.032 10.387-8.444 18.798-18.827 18.83h-0.003zM224.256 606.379v-464.896c-0.004-0.336-0.006-0.733-0.006-1.131 0-27.308 10.515-52.161 27.716-70.73l-0.062 0.068c16.945-17.92 40.871-29.086 67.406-29.127h357.042c26.543 0.041 50.469 11.207 67.372 29.083l0.041 0.044c17.14 18.502 27.654 43.354 27.654 70.663 0 0.398-0.002 0.795-0.007 1.192l0.001-0.061v464.896c31.14 8.423 53.674 36.425 53.674 69.689 0 39.808-32.271 72.078-72.078 72.078-0.030 0-0.059 0-0.089 0h-96.706v23.552c0.001 0.153 0.002 0.334 0.002 0.515 0 40.845-33.111 73.956-73.956 73.956-0.241 0-0.481-0.001-0.721-0.003h-167.501c-0.22 0.002-0.481 0.004-0.742 0.004-40.845 0-73.956-33.111-73.956-73.956 0-0.201 0.001-0.402 0.002-0.603v0.031-23.609h-96.711c-39.614-0.255-71.628-32.427-71.628-72.077 0-33.111 22.327-61.008 52.747-69.456l0.507-0.12zM676.352 78.165h-357.035c-32.046 1.197-57.571 27.465-57.571 59.694 0 1.295 0.041 2.58 0.122 3.854l-0.009-0.174v463.189h471.836v-463.246c0.070-1.084 0.11-2.351 0.11-3.627 0-32.188-25.46-58.43-57.34-59.686l-0.114-0.004zM377.060 771.698c-0.002 0.137-0.003 0.299-0.003 0.461 0 20.077 16.275 36.352 36.352 36.352 0.221 0 0.442-0.002 0.662-0.006h167.562c0.187 0.003 0.408 0.005 0.629 0.005 20.077 0 36.352-16.275 36.352-36.352 0-0.162-0.001-0.324-0.003-0.485v0.024-23.609h-241.55zM242.745 710.372h510.18c17.327-1.79 30.724-16.312 30.724-33.963s-13.397-32.172-30.578-33.95l-0.146-0.012h-510.18c-1.022-0.109-2.208-0.171-3.409-0.171-18.851 0-34.133 15.282-34.133 34.133s15.282 34.133 34.133 34.133c1.201 0 2.387-0.062 3.555-0.183l-0.146 0.012zM497.835 554.496c-10.431 0-18.887-8.456-18.887-18.887v0-356.58c-0.018-0.31-0.028-0.672-0.028-1.036 0-10.431 8.456-18.887 18.887-18.887s18.887 8.456 18.887 18.887c0 0.364-0.010 0.727-0.031 1.086l0.002-0.050v356.636c-0.032 10.387-8.444 18.798-18.827 18.83h-0.003z" glyph-name="dark" unicode=""/><glyph d="M492.316 814.194c-199.946-0.13-361.984-162.248-361.984-362.211 0-200.044 162.168-362.212 362.212-362.212s362.212 162.168 362.212 362.212c0 0.020 0 0.040 0 0.060v-0.003c-0.259 200.008-162.409 362.058-362.43 362.155h-0.009zM731.819 647.111c42.961-52.050 69.229-119.268 69.859-192.602l0.001-0.137c-42.42 8.84-91.167 13.901-141.097 13.901-26.184 0-52.043-1.392-77.507-4.106l3.166 0.274c-8.42 20.48-16.327 38.571-27.193 60.757 69.198 26.109 127.372 67.922 172.257 121.285l0.515 0.628zM697.685 682.894c-41.666-51.065-96.647-89.782-159.67-111.010l-2.463-0.72c-38.759 69.981-77.059 129.168-118.871 185.597l3.159-4.463c21.789 5.497 46.803 8.651 72.553 8.651 78.864 0 150.818-29.586 205.368-78.264l-0.303 0.266zM360.789 731.534c36.893-50.496 74.833-108.916 109.664-169.355l5.081-9.561c-85.661-23.386-184.114-37.111-285.678-37.716l-0.359-0.002c20.897 96.525 84.425 174.96 169.43 215.826l1.862 0.807zM182.955 451.527c0 3.186 0 6.315 0 9.444 1.349-0.006 2.944-0.009 4.54-0.009 111.691 0 219.634 16.045 321.651 45.955l-8.068-2.028c8.875-17.067 17.067-34.93 25.088-52.508-112.075-36.588-203.628-110.033-262.491-205.737l-1.189-2.078c-49.334 54.429-79.531 126.999-79.531 206.621 0 0.12 0 0.239 0 0.359v-0.019zM302.421 207.474c54.886 91.725 140.105 160.479 241.541 193.023l3.081 0.854c26.714-66.529 49.571-145.244 64.759-226.658l1.233-7.952c-35.634-15.557-77.154-24.609-120.788-24.609-71.932 0-138.118 24.6-190.605 65.845l0.666-0.504zM665.202 195.072c-15.601 84.595-36.405 158.623-63.105 229.767l3.031-9.209c19.891 3.087 42.833 4.85 66.188 4.85 45.092 0 88.649-6.573 129.765-18.812l-3.213 0.821c-14.426-86.779-63.17-160.048-131.537-206.67l-1.071-0.69z" glyph-name="dribble" unicode=""/><glyph d="M109.227 960h3194.88c60.324 0 109.227-48.902 109.227-109.227v-805.547c0-60.324-48.902-109.227-109.227-109.227h-3194.88c-60.324 0-109.227 48.902-109.227 109.227v805.547c0 60.324 48.902 109.227 109.227 109.227z" glyph-name="playstore" horiz-adv-x="3413" unicode=""/><glyph d="M601.202 485.831c2.315-11.062 3.641-23.773 3.641-36.794 0-0.025 0-0.050 0-0.074v0.004c0.228-3.61 0.357-7.829 0.357-12.078 0-112.825-91.463-204.288-204.288-204.288-3.087 0-6.158 0.068-9.211 0.204l0.434-0.015c-1.056-0.018-2.301-0.028-3.549-0.028-122.314 0-221.468 99.155-221.468 221.468s99.155 221.468 221.468 221.468c1.248 0 2.494-0.010 3.737-0.031l-0.187 0.002c0.785 0.010 1.712 0.016 2.64 0.016 56.496 0 107.819-22.15 145.758-58.24l-0.089 0.084-60.132-57.685c-22.25 21.151-52.412 34.161-85.612 34.161-0.922 0-1.842-0.010-2.759-0.030l0.137 0.002c-77.259 0-139.89-62.631-139.89-139.89s62.631-139.89 139.89-139.89v0c2.436-0.176 5.277-0.277 8.141-0.277 57.689 0 105.864 40.735 117.331 95.010l0.138 0.783h-125.554v76.117h209.067zM815.047 478.379v64.284h-64.626v-64.284h-64.284v-64.512h64.284v-64.284h64.569v64.284h64.284v64.512h-64.284z" glyph-name="google" unicode=""/><glyph d="M718.108 415.744l24.064 156.786h-150.471v101.774c-0.199 2.097-0.313 4.534-0.313 6.998 0 43.295 35.098 78.393 78.393 78.393 3.641 0 7.224-0.248 10.733-0.729l-0.408 0.046h68.267v133.518c-36.050 6.134-77.972 9.958-120.669 10.574l-0.618 0.007c-4.321 0.347-9.355 0.545-14.435 0.545-105.724 0-191.431-85.707-191.431-191.431 0-7.106 0.387-14.121 1.141-21.025l-0.076 0.854v-119.467h-137.842v-156.843h137.785v-379.051h169.472v379.051z" glyph-name="fb" unicode=""/><glyph d="M517.689 846.222c-223.074 0-403.911-180.837-403.911-403.911s180.837-403.911 403.911-403.911c223.074 0 403.911 180.837 403.911 403.911v0c-0.194 222.996-180.916 403.717-403.893 403.911h-0.018zM517.689 91.534c-0.017 0-0.037 0-0.057 0-193.76 0-350.834 157.074-350.834 350.834s157.074 350.834 350.834 350.834c193.76 0 350.834-157.074 350.834-350.834 0-0.020 0-0.040 0-0.060v0.003c-0.259-193.625-157.152-350.518-350.752-350.777h-0.025zM510.123 591.929c19.511 0 35.328 15.817 35.328 35.328s-15.817 35.328-35.328 35.328c-19.511 0-35.328-15.817-35.328-35.328v0c0-19.511 15.817-35.328 35.328-35.328v0zM566.215 281.714h-22.13v252.416c0 0 0 0 0 0 0 14.621-11.837 26.478-26.45 26.51h-48.643c-14.625 0-26.482-11.856-26.482-26.482s11.856-26.482 26.482-26.482v0h22.187v-225.963h-22.187c-14.625 0-26.482-11.856-26.482-26.482s11.856-26.482 26.482-26.482v0h97.28c14.625 0 26.482 11.856 26.482 26.482s-11.856 26.482-26.482 26.482v0z" glyph-name="info" unicode=""/><glyph d="M113.778 87.95c0.065-49.333 40.039-89.308 89.366-89.372h668.906c49.333 0.065 89.308 40.039 89.372 89.366v668.906c-0.065 49.333-40.039 89.308-89.366 89.372h-668.906c-49.333-0.065-89.308-40.039-89.372-89.366v-0.006zM872.050 41.017h-668.9c-25.882 0.097-46.837 21.052-46.933 46.924v111.682l160.711 160.768 137.33-137.33c3.826-3.859 9.129-6.248 14.99-6.248s11.164 2.389 14.989 6.247l0.001 0.002 248.036 248.036 186.709-186.709v-196.437c-0.064-25.906-21.032-46.893-46.924-46.99h-0.009zM203.15 803.783h668.9c25.882-0.097 46.837-21.052 46.933-46.924v-412.397l-171.804 171.804c-3.826 3.859-9.129 6.248-14.99 6.248s-11.164-2.389-14.989-6.247l-0.001-0.002-248.036-248.036-137.33 137.159c-3.826 3.859-9.129 6.248-14.99 6.248s-11.164-2.389-14.989-6.247l-0.001-0.002-145.636-145.636v497.095c0.097 25.882 21.052 46.837 46.924 46.933h0.009zM376.718 506.539c59.696 0 108.089 48.393 108.089 108.089s-48.393 108.089-108.089 108.089c-59.696 0-108.089-48.393-108.089-108.089v0c0-59.696 48.393-108.089 108.089-108.089v0zM376.718 679.936c36.090-0.097 65.308-29.376 65.308-65.479 0-36.163-29.316-65.479-65.479-65.479-36.103 0-65.382 29.219-65.479 65.299v0.009c0 0.034 0 0.074 0 0.114 0 36.195 29.341 65.536 65.536 65.536 0.040 0 0.080 0 0.12 0h-0.006z" glyph-name="light" unicode=""/><glyph d="M781.767 386.446c-33.007 24.022-71.098 43.899-111.981 57.718l-2.992 0.878c54.52 41.077 89.401 105.699 89.401 178.467 0 123.068-99.766 222.834-222.834 222.834s-222.834-99.766-222.834-222.834c0-72.769 34.88-137.39 88.834-178.058l0.567-0.409c-143.874-48.359-251.8-167.454-283.485-314.867l-0.504-2.801c-1.361-6.173-2.141-13.264-2.141-20.537 0-54.956 44.528-99.511 99.474-99.556h337.981c18.097 0 32.768 14.671 32.768 32.768s-14.671 32.768-32.768 32.768h-338.034c-0.078-0.001-0.17-0.001-0.263-0.001-10.471 0-19.813 4.836-25.913 12.396l-0.050 0.063c-4.762 5.822-7.648 13.34-7.648 21.531 0 2.448 0.258 4.835 0.747 7.136l-0.040-0.223c35.257 161.864 175.177 282.048 343.964 286.709l0.498 0.011h8.704q4.38 0 8.761 0c75.843-1.598 145.559-26.542 202.596-67.903l-1.038 0.717c5.302-3.845 11.939-6.151 19.115-6.151 18.101 0 32.775 14.674 32.775 32.775 0 10.926-5.346 20.603-13.565 26.558l-0.095 0.066zM541.241 466.091h-15.929c-83.378 4.357-149.333 73.024-149.333 157.096 0 86.873 70.425 157.298 157.298 157.298s157.298-70.425 157.298-157.298c0-84.072-65.956-152.739-148.947-157.080l-0.387-0.016zM859.819 146.603l83.342 83.342c5.933 5.933 9.602 14.129 9.602 23.182 0 18.106-14.678 32.785-32.785 32.785-9.053 0-17.249-3.67-23.182-9.602l-83.342-83.342-83.342 83.342c-5.933 5.933-14.129 9.602-23.182 9.602-18.106 0-32.785-14.678-32.785-32.785 0-9.053 3.67-17.249 9.602-23.182l83.342-83.342-83.342-83.342c-5.933-5.933-9.602-14.129-9.602-23.182 0-18.106 14.678-32.785 32.785-32.785 9.053 0 17.249 3.67 23.182 9.602l83.342 83.342 83.342-83.342c5.933-5.933 14.129-9.602 23.182-9.602 18.106 0 32.785 14.678 32.785 32.785 0 9.053-3.67 17.249-9.602 23.182v0z" glyph-name="link" unicode=""/><glyph d="M317.497 106.439h-138.638v446.407h138.638zM248.092 613.774c-0.118-0.001-0.258-0.001-0.397-0.001-44.552 0-80.668 36.116-80.668 80.668s36.116 80.668 80.668 80.668c44.432 0 80.473-35.922 80.668-80.308v-0.019c0-0.018 0-0.039 0-0.060 0-44.469-35.856-80.563-80.234-80.95h-0.037zM836.324 106.496h-138.354v217.259c0 51.769-1.024 118.215-72.078 118.215-72.078 0-83.115-56.263-83.115-114.46v-221.013h-138.468v446.35h132.949v-60.871h1.934c25.733 43.48 72.391 72.18 125.753 72.18 1.91 0 3.812-0.037 5.705-0.11l-0.273 0.008c140.288 0 166.059-92.388 166.059-212.366v-245.191z" glyph-name="linkedin" unicode=""/><glyph d="M950.727 460.857c-0.046-226.59-183.743-410.26-410.34-410.26-43.312 0-85.056 6.71-124.25 19.148l2.906-0.796c20.308 30.935 37.657 66.513 50.258 104.264l0.942 3.256c4.949 19.172 25.486 97.621 25.486 97.621 20.113-28.695 53.033-47.223 90.28-47.223 1.301 0 2.597 0.023 3.887 0.067l-0.187-0.005c123.733 0 212.935 113.778 212.935 255.26-2.028 131.438-109.054 237.209-240.784 237.209-4.392 0-8.756-0.118-13.090-0.35l0.605 0.026c-177.038 0-271.303-118.784-271.303-248.32-0.043-1.477-0.067-3.215-0.067-4.959 0-64.168 32.831-120.668 82.611-153.619l0.684-0.426c7.794-3.641 11.89-1.991 13.71 5.689 1.308 5.689 8.249 33.564 11.378 46.478 0.301 1.013 0.474 2.177 0.474 3.381 0 3.222-1.24 6.155-3.269 8.346l0.007-0.008c-18.824 25.988-30.151 58.48-30.265 93.611v0.028c0 0.137-0.001 0.299-0.001 0.461 0 98.058 79.492 177.55 177.55 177.55 2.781 0 5.548-0.064 8.298-0.19l-0.39 0.014c2.916 0.187 6.324 0.294 9.756 0.294 89.45 0 161.963-72.513 161.963-161.963 0-1.844-0.031-3.681-0.092-5.509l0.007 0.266c0-110.99-56.092-187.733-129.024-187.733-0.894-0.048-1.941-0.075-2.995-0.075-32.864 0-59.506 26.642-59.506 59.506 0 5.159 0.657 10.165 1.891 14.938l-0.091-0.413c13.767 38.456 25.637 84.414 33.477 131.734l0.657 4.8c0.239 1.863 0.375 4.019 0.375 6.207 0 28.465-23.076 51.541-51.541 51.541-0.272 0-0.543-0.002-0.814-0.006h0.041c-41.188 0-74.297-42.496-74.297-99.612-0.008-0.579-0.013-1.262-0.013-1.946 0-21.309 4.506-41.565 12.617-59.869l-0.373 0.944s-40.505-171.748-47.957-203.833c-3.286-19.191-5.164-41.295-5.164-63.839 0-19.037 1.339-37.762 3.929-56.084l-0.244 2.106c-153.998 61.446-260.836 209.314-260.836 382.135 0 226.624 183.715 410.34 410.34 410.34 226.609 0 410.314-183.69 410.34-410.293v-0.002z" glyph-name="pinterest" unicode=""/><glyph d="M923.989 569.856c-18.204 2.731-36.864 5.348-55.467 7.737-2.209 0.306-3.993 1.843-4.654 3.885l-0.011 0.040c-9.535 34.072-22.188 63.788-38.101 91.385l1.010-1.899c-0.41 0.766-0.65 1.676-0.65 2.641 0 1.301 0.437 2.501 1.172 3.459l-0.010-0.014c11.378 14.905 22.756 29.924 33.792 44.772 6.072 8.312 9.715 18.734 9.715 30.007 0 14.001-5.62 26.69-14.727 35.933l-61.15 61.15c-9.237 9.101-21.926 14.721-35.927 14.721-11.273 0-21.695-3.643-30.153-9.816l0.146 0.101c-14.791-10.923-29.81-22.3-44.772-33.792-0.945-0.725-2.144-1.162-3.446-1.162-0.966 0-1.875 0.241-2.672 0.665l0.031-0.015c-25.699 14.904-55.414 27.556-86.72 36.422l-2.766 0.67c-2.082 0.672-3.619 2.456-3.922 4.635l-0.003 0.030c-2.446 18.66-5.063 37.319-7.737 55.467-4.016 24.462-24.911 42.927-50.155 43.122h-86.492c-25.265-0.195-46.16-18.66-50.136-42.825l-0.040-0.297c-2.731-18.148-5.348-36.807-7.737-55.467-0.306-2.209-1.843-3.993-3.885-4.654l-0.040-0.011c-34.072-9.535-63.788-22.188-91.385-38.101l1.899 1.010c-0.766-0.41-1.676-0.65-2.641-0.65-1.301 0-2.501 0.437-3.459 1.172l0.014-0.010c-14.905 11.378-29.98 22.756-44.772 33.792-8.312 6.072-18.734 9.715-30.007 9.715-14.001 0-26.69-5.62-35.933-14.727l-61.15-61.15c-9.101-9.237-14.721-21.926-14.721-35.927 0-11.273 3.643-21.695 9.816-30.153l-0.101 0.146c10.98-14.848 22.3-29.867 33.792-44.772 0.725-0.945 1.162-2.144 1.162-3.446 0-0.966-0.241-1.875-0.665-2.672l0.015 0.031c-14.904-25.699-27.556-55.414-36.422-86.72l-0.67-2.766c-0.672-2.082-2.456-3.619-4.635-3.922l-0.030-0.003c-18.603-2.446-37.319-5.063-55.467-7.737-24.462-4.016-42.927-24.911-43.122-50.155v-86.492c0.195-25.265 18.66-46.16 42.825-50.136l0.297-0.040c18.204-2.731 36.864-5.348 55.467-7.737 2.209-0.306 3.993-1.843 4.654-3.885l0.011-0.040c9.535-34.072 22.188-63.788 38.101-91.385l-1.010 1.899c0.41-0.766 0.65-1.676 0.65-2.641 0-1.301-0.437-2.501-1.172-3.459l0.010 0.014c-11.378-14.905-22.756-29.98-33.792-44.772-6.072-8.312-9.715-18.734-9.715-30.007 0-14.001 5.62-26.69 14.727-35.933l61.15-61.15c9.237-9.101 21.926-14.721 35.927-14.721 11.273 0 21.695 3.643 30.153 9.816l-0.146-0.101c14.791 10.923 29.81 22.3 44.772 33.792 0.945 0.725 2.144 1.162 3.446 1.162 0.966 0 1.875-0.241 2.672-0.665l-0.031 0.015c25.699-14.904 55.414-27.556 86.72-36.422l2.766-0.67c2.082-0.672 3.619-2.456 3.922-4.635l0.003-0.030c2.446-18.66 5.063-37.319 7.737-55.467 4.016-24.462 24.911-42.927 50.155-43.122h86.492c25.265 0.195 46.16 18.66 50.136 42.825l0.040 0.297c2.731 18.204 5.348 36.864 7.737 55.467 0.306 2.209 1.843 3.993 3.885 4.654l0.040 0.011c34.072 9.535 63.788 22.188 91.385 38.101l-1.899-1.010c0.766 0.41 1.676 0.65 2.641 0.65 1.301 0 2.501-0.437 3.459-1.172l-0.014 0.010c14.905-11.378 29.98-22.756 44.772-33.792 8.312-6.072 18.734-9.715 30.007-9.715 14.001 0 26.69 5.62 35.933 14.727l61.15 61.15c9.101 9.237 14.721 21.926 14.721 35.927 0 11.273-3.643 21.695-9.816 30.153l0.101-0.146c-10.923 14.791-22.3 29.867-33.792 44.772-0.725 0.945-1.162 2.144-1.162 3.446 0 0.966 0.241 1.875 0.665 2.672l-0.015-0.031c14.904 25.699 27.556 55.414 36.422 86.72l0.67 2.766c0.672 2.082 2.456 3.619 4.635 3.922l0.030 0.003c18.603 2.446 37.319 5.063 55.467 7.737 24.462 4.016 42.927 24.911 43.122 50.155v86.492c-0.195 25.265-18.66 46.16-42.825 50.136l-0.297 0.040zM921.941 433.323c0.001-0.031 0.001-0.067 0.001-0.103 0-2.76-1.965-5.061-4.573-5.579l-0.036-0.006c-17.92-2.674-36.295-5.234-54.67-7.623-20.427-2.664-36.861-17.187-42.296-36.337l-0.086-0.356c-8.44-30.152-19.637-56.448-33.719-80.871l0.894 1.681c-4.147-7.178-6.595-15.789-6.595-24.971 0-11.711 3.98-22.492 10.662-31.064l-0.085 0.113c11.378-14.677 22.756-29.525 33.28-44.089 0.617-0.896 0.986-2.005 0.986-3.201 0-1.544-0.615-2.944-1.613-3.969l-61.155-61.155c-1.024-0.997-2.424-1.612-3.967-1.612-1.195 0-2.304 0.369-3.22 0.998l0.019-0.013c-14.564 10.752-29.355 21.959-44.089 33.28-8.459 6.597-19.24 10.577-30.951 10.577-9.182 0-17.793-2.447-25.216-6.725l0.245 0.13c-22.741-13.187-49.037-24.384-76.74-32.232l-2.449-0.593c-19.506-5.521-34.030-21.955-36.666-42.127l-0.027-0.255c-2.389-18.375-4.949-36.75-7.623-54.67-0.525-2.644-2.826-4.609-5.585-4.609-0.036 0-0.073 0-0.109 0.001h-86.239c-0.031-0.001-0.067-0.001-0.103-0.001-2.76 0-5.061 1.965-5.579 4.573l-0.006 0.036c-2.674 17.863-5.234 36.238-7.623 54.67-2.664 20.427-17.187 36.861-36.337 42.296l-0.356 0.086c-30.152 8.438-56.448 19.636-80.87 33.718l1.68-0.894c-7.178 4.147-15.789 6.595-24.971 6.595-11.711 0-22.492-3.98-31.064-10.662l0.113 0.085c-14.677-11.378-29.525-22.756-44.089-33.28-0.896-0.617-2.005-0.986-3.201-0.986-1.544 0-2.944 0.615-3.969 1.613l0.001-0.001-60.928 61.212c-0.997 1.024-1.612 2.424-1.612 3.967 0 1.195 0.369 2.304 0.998 3.22l-0.013-0.019c10.752 14.564 21.959 29.412 33.28 44.089 6.597 8.459 10.577 19.24 10.577 30.951 0 9.182-2.447 17.793-6.725 25.216l0.13-0.245c-13.189 22.742-24.386 49.037-32.232 76.741l-0.593 2.448c-5.521 19.506-21.955 34.030-42.127 36.666l-0.255 0.027c-18.318 2.389-36.75 5.177-54.67 7.623-2.644 0.525-4.609 2.826-4.609 5.585 0 0.036 0 0.073 0.001 0.109v-0.005 86.3c-0.001 0.031-0.001 0.067-0.001 0.103 0 2.76 1.965 5.061 4.573 5.579l0.036 0.006c17.92 2.674 36.295 5.234 54.67 7.623 20.434 2.648 36.875 17.179 42.296 36.337l0.086 0.356c8.434 30.151 19.632 56.447 33.717 80.867l-0.893-1.678c4.147 7.178 6.595 15.789 6.595 24.971 0 11.711-3.98 22.492-10.662 31.064l0.085-0.113c-11.378 14.677-22.471 29.468-33.28 44.089-0.617 0.896-0.986 2.005-0.986 3.201 0 1.544 0.615 2.944 1.613 3.969l-0.001-0.001 61.099 60.928c1.034 1.058 2.475 1.714 4.070 1.714 1.152 0 2.224-0.342 3.12-0.931l-0.022 0.013c14.564-10.752 29.355-21.959 44.089-33.28 8.459-6.597 19.24-10.577 30.951-10.577 9.182 0 17.793 2.447 25.216 6.725l-0.245-0.13c22.742 13.189 49.037 24.386 76.741 32.232l2.448 0.593c19.506 5.521 34.030 21.955 36.666 42.127l0.027 0.255c2.389 18.375 4.949 36.75 7.623 54.67 0.525 2.644 2.826 4.609 5.585 4.609 0.036 0 0.073 0 0.109-0.001h86.295c0.031 0.001 0.067 0.001 0.103 0.001 2.76 0 5.061-1.965 5.579-4.573l0.006-0.036c2.674-17.863 5.234-36.238 7.623-54.67 2.664-20.427 17.187-36.861 36.337-42.296l0.356-0.086c30.152-8.44 56.448-19.638 80.871-33.719l-1.682 0.894c7.178-4.147 15.789-6.595 24.971-6.595 11.711 0 22.492 3.98 31.064 10.662l-0.113-0.085c14.677 11.378 29.525 22.756 44.089 33.28 0.896 0.617 2.005 0.986 3.201 0.986 1.544 0 2.944-0.615 3.969-1.613l61.155-61.155c0.997-1.024 1.612-2.424 1.612-3.967 0-1.195-0.369-2.304-0.998-3.22l0.013 0.019c-10.752-14.564-21.959-29.412-33.28-44.089-6.597-8.459-10.577-19.24-10.577-30.951 0-9.182 2.447-17.793 6.725-25.216l-0.13 0.245c13.189-22.742 24.386-49.037 32.232-76.741l0.593-2.448c5.521-19.506 21.955-34.030 42.127-36.666l0.255-0.027c18.375-2.389 36.75-4.949 54.67-7.623 2.644-0.525 4.609-2.826 4.609-5.585 0-0.036 0-0.073-0.001-0.109v0.005-86.414zM483.556 686.364c-115.936 0-209.92-93.984-209.92-209.92s93.984-209.92 209.92-209.92c115.936 0 209.92 93.984 209.92 209.92v0c-0.129 115.884-94.036 209.791-209.908 209.92h-0.012zM483.556 311.694c-91.115 0-164.978 73.863-164.978 164.978s73.863 164.978 164.978 164.978c91.115 0 164.978-73.863 164.978-164.978v0c0-91.115-73.863-164.978-164.978-164.978v0z" glyph-name="primary" unicode=""/><glyph d="M893.952 655.019l-182.955 182.727c-5.176 5.174-12.302 8.399-20.181 8.476h-548.31c-15.929 0-28.843-12.913-28.843-28.843v0-731.022c0-15.929 12.913-28.843 28.843-28.843v0h731.022c15.929 0 28.843 12.913 28.843 28.843v0 548.238c0 0.017 0 0.037 0 0.057 0 7.951-3.217 15.15-8.42 20.367l0.001-0.001zM354.133 788.537h307.769v-170.667h-307.769zM730.567 115.2h-445.042v242.802h445.042zM844.686 115.2h-56.434v271.644c0 15.929-12.913 28.843-28.843 28.843v0h-502.784c-15.929 0-28.843-12.913-28.843-28.843v0-271.644h-56.434v673.337h125.156v-199.623c0-15.929 12.913-28.843 28.843-28.843h365.511c15.929 0 28.843 12.913 28.843 28.843v0 158.777l125.156-125.156zM590.45 761.458c-15.929 0-28.843-12.913-28.843-28.843v0-58.937c0-15.929 12.913-28.843 28.843-28.843s28.843 12.913 28.843 28.843v0 58.937c0 15.929-12.913 28.843-28.843 28.843v0z" glyph-name="secondary" unicode=""/><glyph d="M847.588 427.748c-7.592 22.039-28.152 37.591-52.344 37.591-6.245 0-12.249-1.036-17.848-2.947l0.389 0.115-68.892-22.756-45.966 136.533 68.892 22.756c22.032 7.521 37.595 28.041 37.595 52.196 0 30.393-24.638 55.031-55.031 55.031-6.238 0-12.234-1.038-17.824-2.951l0.387 0.115-68.892-22.756-23.836 71.111c-7.893 21.449-28.149 36.471-51.913 36.471-30.476 0-55.182-24.706-55.182-55.182 0-5.767 0.885-11.327 2.526-16.553l-0.106 0.391 23.78-71.282-141.653-47.332-23.836 71.282c-7.893 21.449-28.149 36.471-51.913 36.471-30.476 0-55.182-24.706-55.182-55.182 0-5.767 0.885-11.327 2.526-16.553l-0.106 0.391 23.836-71.339-68.722-22.756c-22.077-7.53-37.672-28.089-37.672-52.289 0-6.203 1.025-12.167 2.914-17.731l-0.114 0.388c7.942-21.293 27.695-36.367 51.088-37.316l0.112-0.004c10.297-1.536 18.204 2.446 87.552 25.486l45.966-136.533-68.892-22.756c-22.061-7.601-37.627-28.181-37.627-52.397 0-6.162 1.008-12.089 2.868-17.625l-0.114 0.39c7.942-21.293 27.695-36.367 51.088-37.316l0.112-0.004c10.297-1.536 18.204 2.446 87.552 25.486l23.836-71.282c8.051-21.937 28.757-37.305 53.053-37.305 5.979 0 11.741 0.931 17.149 2.656l-0.399-0.11c22.077 7.53 37.672 28.089 37.672 52.289 0 6.203-1.025 12.167-2.914 17.731l0.114-0.388-24.348 71.168 142.222 47.502 23.609-71.396c8.051-21.937 28.757-37.305 53.053-37.305 5.979 0 11.741 0.931 17.149 2.656l-0.399-0.11c22.077 7.53 37.672 28.089 37.672 52.289 0 6.203-1.025 12.167-2.914 17.731l0.114-0.388-23.836 71.282 68.892 22.756c22.058 7.374 37.674 27.844 37.674 51.961 0 6.305-1.067 12.362-3.032 17.997l0.116-0.384zM462.052 356.124l-45.966 136.875 141.824 47.502 45.966-136.818z" glyph-name="slack" unicode=""/><glyph d="M891.563 333.426c-0.017 0-0.037 0-0.057 0-18.631 0-33.735-15.104-33.735-33.735 0-0.020 0-0.040 0-0.060v0.003-199.908h-676.409v199.908c0 18.663-15.129 33.792-33.792 33.792s-33.792-15.129-33.792-33.792v0-233.586c0-0.017 0-0.037 0-0.057 0-18.631 15.104-33.735 33.735-33.735 0.020 0 0.040 0 0.060 0h743.99c0.017 0 0.037 0 0.057 0 18.631 0 33.735 15.104 33.735 33.735 0 0.020 0 0.040 0 0.060v-0.003 233.87c-0.129 18.533-15.183 33.508-33.734 33.508-0.020 0-0.041 0-0.061 0h0.003zM495.73 277.618c6.066-6.244 14.541-10.118 23.922-10.118s17.856 3.874 23.914 10.11l205.718 205.548c6.603 6.192 10.716 14.971 10.716 24.711 0 18.694-15.155 33.849-33.849 33.849-9.739 0-18.518-4.113-24.694-10.698l-0.017-0.018-147.911-147.911v429.34c0 18.663-15.129 33.792-33.792 33.792s-33.792-15.129-33.792-33.792v0-429.113l-147.911 147.911c-6.036 5.661-14.178 9.138-23.133 9.138-18.694 0-33.849-15.155-33.849-33.849 0-8.955 3.477-17.098 9.155-23.151l-0.017 0.018z" glyph-name="success" unicode=""/><glyph d="M841.956 608.597c0.512-6.997 0.512-13.938 0.512-20.935 0.007-0.933 0.011-2.037 0.011-3.142 0-251.351-203.76-455.111-455.111-455.111-1.224 0-2.446 0.005-3.668 0.014l0.187-0.001c-0.411-0.001-0.898-0.002-1.384-0.002-91.366 0-176.443 26.923-247.732 73.269l1.763-1.075c10.939-1.274 23.613-2 36.457-2 0.863 0 1.725 0.003 2.587 0.010l-0.132-0.001c0.246-0.001 0.538-0.001 0.83-0.001 75.484 0 144.913 25.924 199.87 69.354l-0.679-0.517c-70.183 1.34-129.291 47.277-150.258 110.59l-0.327 1.14c9.1-1.52 19.631-2.427 30.361-2.503h0.075c15.118 0.122 29.7 2.19 43.579 5.966l-1.196-0.277c-74.223 15.366-129.221 80.189-129.252 157.863v1.994c20.991-11.922 45.927-19.365 72.507-20.413l0.31-0.010c-43.528 29.352-71.774 78.474-71.774 134.194 0 29.889 8.128 57.88 22.293 81.882l-0.411-0.752c79.808-97.616 197.816-161.409 330.874-168.401l1.13-0.047c-2.464 11.069-3.911 23.806-3.982 36.869v0.052c0.094 88.97 72.24 161.058 161.223 161.058 46.304 0 88.049-19.521 117.455-50.781l0.078-0.083c38.603 7.556 72.931 21.073 103.824 39.709l-1.424-0.797c-12.479-37.863-37.525-68.719-70.103-88.342l-0.724-0.404c34.383 3.991 65.746 12.774 94.839 25.734l-2.053-0.817c-22.411-32.437-49.088-59.983-79.621-82.624l-0.933-0.661z" glyph-name="twitter" unicode=""/><glyph d="M971.264 133.575l-390.94 677.205c-12.485 21.333-35.287 35.435-61.383 35.435s-48.898-14.102-61.202-35.101l-0.181-0.334-391.168-677.205c-5.97-10.167-9.497-22.392-9.497-35.442 0-39.147 31.733-70.881 70.88-70.884h782.109c39.146 0.002 70.88 31.737 70.88 70.884 0 13.049-3.526 25.275-9.678 35.776l0.181-0.335zM127.772 98.133l391.054 676.978 391.054-676.978zM469.788 531.342l20.309-232.676c1.357-14.79 13.701-26.283 28.729-26.283s27.372 11.494 28.721 26.17l0.008 0.113 20.309 232.676c0.111 1.286 0.175 2.783 0.175 4.295s-0.063 3.009-0.188 4.488l0.013-0.193c-1.748 25.78-23.089 46.030-49.159 46.030-27.209 0-49.266-22.057-49.266-49.266 0-1.886 0.106-3.748 0.312-5.579l-0.021 0.225zM559.559 217.372c0-22.464-18.211-40.676-40.676-40.676s-40.676 18.211-40.676 40.676c0 22.464 18.211 40.676 40.676 40.676s40.676-18.211 40.676-40.676z" glyph-name="warning" unicode=""/><glyph d="M758.784 674.588c-62.038 61.99-147.717 100.329-242.35 100.329-189.362 0-342.869-153.508-342.869-342.869 0-62.984 16.983-122.002 46.619-172.723l-0.877 1.625-48.64-177.55 181.703 47.73c47.243-26.248 103.612-41.7 163.589-41.7 0.088 0 0.177 0 0.265 0h-0.014c189.943 0.023 344.132 153.073 345.997 342.579l0.001 0.177c-1.060 95.063-40.503 180.712-103.531 242.341l-0.064 0.062zM516.38 147.172c-53.549 0.005-103.639 14.807-146.407 40.538l1.283-0.716-10.354 6.201-107.748-28.444 28.444 105.131-6.77 10.809c-26.030 42.219-41.452 93.384-41.452 148.15 0 157.66 127.809 285.468 285.468 285.468 156.484 0 283.56-125.909 285.447-281.945l0.002-0.178c-1.736-157.778-130.044-285.013-288.069-285.013-0.026 0-0.052 0-0.077 0h0.004zM672.654 360.562c-8.476 4.324-50.631 25.031-58.539 27.819s-13.596 4.324-19.285-4.324-22.073-27.819-27.193-33.678-10.012-6.485-18.546-2.162c-50.011 20.277-90.341 55.811-116.135 100.752l-0.601 1.136c-8.818 15.132 8.818 14.052 25.145 46.763 0.947 1.974 1.501 4.291 1.501 6.737 0 3.040-0.855 5.88-2.337 8.294l0.039-0.069c-2.162 4.324-19.285 46.478-26.396 63.602s-14.052 14.336-19.285 14.677-10.468 0.114-16.156 0.114c-9.061-0.285-17.125-4.325-22.728-10.607l-0.027-0.031c-18.523-17.579-30.048-42.378-30.048-69.869 0-0.497 0.004-0.993 0.011-1.488l-0.001 0.075c3.009-33.866 15.657-64.302 35.147-89.109l-0.274 0.362c37.043-54.84 86.397-98.691 144.266-128.247l2.166-1.004c24.066-14.158 53.013-22.521 83.914-22.521 6.674 0 13.257 0.39 19.727 1.149l-0.786-0.075c24.66 5.13 45.122 20.041 57.523 40.402l0.219 0.387c3.781 8.44 5.984 18.293 5.984 28.66 0 4.285-0.376 8.483-1.098 12.561l0.063-0.431c-2.105 3.755-7.794 5.916-16.27 10.126z" glyph-name="whatsapp" unicode=""/><glyph d="M912.725 629.874c-9.288 34.139-35.522 60.524-68.879 69.864l-0.696 0.166c-83.804 10.651-180.766 16.729-279.148 16.729-10.043 0-20.071-0.063-30.084-0.19l1.52 0.015c-8.446 0.11-18.42 0.173-28.409 0.173-98.376 0-195.333-6.078-290.515-17.878l11.383 1.151c-34.053-9.506-60.288-35.892-69.414-69.337l-0.161-0.694c-10.472-55.349-16.462-119.020-16.462-184.089 0-2.321 0.008-4.641 0.023-6.959l-0.002 0.356c-0.013-1.962-0.021-4.281-0.021-6.603 0-65.069 5.99-128.74 17.449-190.489l-0.987 6.401c9.34-33.848 35.61-59.911 68.894-68.795l0.681-0.155c83.8-10.65 180.756-16.727 279.133-16.727 9.989 0 19.962 0.063 29.921 0.188l-1.512-0.015c8.446-0.11 18.42-0.173 28.409-0.173 98.376 0 195.333 6.078 290.515 17.878l-11.383-1.151c34.036 8.986 60.377 35.062 69.584 68.264l0.162 0.685c10.472 55.349 16.462 119.020 16.462 184.089 0 2.321-0.008 4.641-0.023 6.959l0.002-0.356c0.013 1.962 0.021 4.281 0.021 6.603 0 65.069-5.99 128.74-17.449 190.489l0.987-6.401zM454.94 322.162v234.041l205.71-117.020-205.71-117.020z" glyph-name="youtube" unicode=""/></font>
</defs>
</svg>
